<svg width="48" height="48" viewBox="0 0 48 48" fill="none" xmlns="http://www.w3.org/2000/svg">
<g clip-path="url(#clip0_140_10814)">
<path d="M47.9964 22.5972V25.4141C47.9612 25.5469 47.9346 25.6818 47.9166 25.8179C47.6818 29.1654 46.7992 32.338 45.1818 35.2724C41.447 42.0296 35.779 46.1647 28.1837 47.6224C27.2682 47.7973 26.3339 47.8771 25.409 48.0004H22.592C22.473 47.9666 22.3518 47.9407 22.2293 47.9229C18.8807 47.6952 15.6963 46.8349 12.7714 45.1987C4.88385 40.7854 0.600882 34.0294 0.0480511 25.0033C-0.236804 20.7323 0.73034 16.4709 2.83099 12.7413C7.23485 4.86786 13.9897 0.60485 22.9958 0.0438039C27.3234 -0.222635 31.4526 0.729267 35.259 2.82087C42.0307 6.54162 46.1505 12.21 47.6185 19.826C47.7934 20.7403 47.8732 21.6734 47.9964 22.5972ZM6.75596 11.7143C4.47146 14.8954 3.1291 18.6556 2.88263 22.5643H11.2584C11.5718 19.5948 11.8805 16.6686 12.1869 13.7671L6.75596 11.7143ZM35.8212 13.766C36.1287 16.6933 36.4363 19.6206 36.7461 22.569H45.1243C44.8387 18.5501 43.5476 14.9327 41.2509 11.7166L35.8212 13.766ZM11.2584 25.4341H2.88263C3.16667 29.46 4.45779 33.079 6.75596 36.2912L12.1822 34.2395C11.8793 31.3251 11.5706 28.3966 11.2584 25.4341ZM36.7461 25.4341C36.4351 28.3896 36.1276 31.3169 35.8201 34.2371L41.2474 36.2912C43.5464 33.0657 44.8375 29.4467 45.1208 25.4341H36.7461ZM14.0871 22.5631H22.5674V15.5113L14.9205 14.5477C14.6458 17.1745 14.3677 19.8541 14.0871 22.5631ZM33.8059 22.5714C33.7469 19.8842 33.4722 17.2061 32.9843 14.5629L25.436 15.5019V22.5667L33.8059 22.5714ZM22.585 25.4364H14.1951C14.257 28.123 14.5318 30.8005 15.0167 33.4437L22.5815 32.4976L22.585 25.4364ZM25.4243 32.4965L32.996 33.446C33.4804 30.8033 33.7528 28.1261 33.8106 25.44H25.4301L25.4243 32.4965ZM22.5733 12.685V2.88425C21.1659 2.95656 19.7714 3.1897 18.417 3.5791C18.2997 3.61431 18.1823 3.81385 18.133 3.96174C17.4722 5.82681 16.809 7.6907 16.1799 9.56516C15.9452 10.2506 15.809 10.9643 15.593 11.7953L22.5733 12.685ZM25.4325 12.5758C27.7636 12.4997 30.0822 12.2034 32.3575 11.6908C32.3538 11.5894 32.3416 11.4885 32.3211 11.3892C31.6556 9.27642 30.9291 7.18952 30.341 5.05919C30.0077 3.85141 29.3246 3.29858 28.1109 3.20585C27.2213 3.13895 26.3398 2.9711 25.4325 2.8373V12.5758ZM22.5744 35.4308C20.2433 35.5069 17.9247 35.8032 15.6494 36.3158C15.6524 36.4169 15.6646 36.5174 15.6858 36.6163C16.3513 38.729 17.0778 40.8171 17.6659 42.9474C17.9992 44.1552 18.6811 44.708 19.896 44.7996C20.7857 44.8677 21.666 45.0402 22.5744 45.1693V35.4308ZM25.4325 45.2397C26.841 44.9698 28.1708 44.7268 29.4948 44.4475C29.6438 44.4158 29.8105 44.2127 29.8692 44.0472C30.5347 42.1845 31.1955 40.3194 31.8247 38.445C32.0594 37.7595 32.1979 37.0447 32.3857 36.3217C30.1013 35.8061 27.7731 35.5086 25.4325 35.4332V45.2397ZM35.1675 10.9995L39.3612 9.43371C37.5736 7.57803 35.6358 6.12142 33.3599 5.01341C33.9702 7.03341 34.5559 8.97595 35.1675 10.9995ZM14.6482 42.9967C14.032 40.9579 13.4451 39.0154 12.8406 37.0107L8.64451 38.5694C10.3663 40.3907 12.3995 41.8899 14.6482 42.9967ZM8.63981 9.44075L12.8418 10.9936L14.6458 5.00754C12.3699 6.12963 10.4345 7.58272 8.63981 9.44075ZM39.3612 38.5659L35.1651 37.0107C34.5571 39.0295 33.9691 40.9767 33.3599 42.9967C35.6068 41.8867 37.6388 40.3864 39.3612 38.5659Z" fill="#7EA0B7"/>
</g>
<defs>
<clipPath id="clip0_140_10814">
<rect width="47.993" height="48" fill="white" transform="translate(0.00341797)"/>
</clipPath>
</defs>
</svg>
