<svg width="48" height="48" viewBox="0 0 48 48" fill="none" xmlns="http://www.w3.org/2000/svg">
<path d="M26.1 32.4995H22.34C19.68 32.4995 17.5 30.2595 17.5 27.4995C17.5 26.6795 18.18 25.9995 19 25.9995C19.82 25.9995 20.5 26.6795 20.5 27.4995C20.5 28.5995 21.32 29.4995 22.34 29.4995H26.1C26.88 29.4995 27.5 28.7995 27.5 27.9395C27.5 26.8595 27.2 26.6995 26.52 26.4595L20.5 24.3595C19.22 23.9195 17.5 22.9795 17.5 20.0395C17.5 17.5395 19.48 15.4795 21.9 15.4795H25.66C28.32 15.4795 30.5 17.7195 30.5 20.4795C30.5 21.2995 29.82 21.9795 29 21.9795C28.18 21.9795 27.5 21.2995 27.5 20.4795C27.5 19.3795 26.68 18.4795 25.66 18.4795H21.9C21.12 18.4795 20.5 19.1795 20.5 20.0395C20.5 21.1195 20.8 21.2795 21.48 21.5195L27.5 23.6195C28.78 24.0595 30.5 24.9995 30.5 27.9395C30.5 30.4595 28.52 32.4995 26.1 32.4995Z" fill="#7EA0B7"/>
<path d="M24 34.5C23.18 34.5 22.5 33.82 22.5 33V15C22.5 14.18 23.18 13.5 24 13.5C24.82 13.5 25.5 14.18 25.5 15V33C25.5 33.82 24.82 34.5 24 34.5Z" fill="#7EA0B7"/>
<path d="M24 45.5C12.14 45.5 2.5 35.86 2.5 24C2.5 12.14 12.14 2.5 24 2.5C24.82 2.5 25.5 3.18 25.5 4C25.5 4.82 24.82 5.5 24 5.5C13.8 5.5 5.5 13.8 5.5 24C5.5 34.2 13.8 42.5 24 42.5C34.2 42.5 42.5 34.2 42.5 24C42.5 23.18 43.18 22.5 44 22.5C44.82 22.5 45.5 23.18 45.5 24C45.5 35.86 35.86 45.5 24 45.5Z" fill="#7EA0B7"/>
<path d="M42 15.5H34C33.18 15.5 32.5 14.82 32.5 14V6C32.5 5.18 33.18 4.5 34 4.5C34.82 4.5 35.5 5.18 35.5 6V12.5H42C42.82 12.5 43.5 13.18 43.5 14C43.5 14.82 42.82 15.5 42 15.5Z" fill="#7EA0B7"/>
<path d="M33.9999 15.4999C33.6199 15.4999 33.2399 15.3599 32.9399 15.0599C32.3599 14.4799 32.3599 13.5199 32.9399 12.9399L42.9399 2.93988C43.5199 2.35988 44.4799 2.35988 45.0599 2.93988C45.6399 3.51988 45.6399 4.47988 45.0599 5.05988L35.0599 15.0599C34.7599 15.3599 34.3799 15.4999 33.9999 15.4999Z" fill="#7EA0B7"/>
</svg>
