<svg width="56" height="40" viewBox="0 0 56 40" fill="none" xmlns="http://www.w3.org/2000/svg">
<g clip-path="url(#clip0_140_10800)">
<path d="M0.618652 13.9966C0.957284 13.418 1.44737 13.2222 2.12606 13.2236C16.1171 13.2389 30.1082 13.2432 44.0993 13.2365C45.3009 13.2365 45.6453 13.5866 45.6453 14.8082V38.4439C45.6453 39.6012 45.2638 39.987 44.1179 39.987C30.163 39.987 16.2081 39.9913 2.25323 39.9998C1.55453 39.9998 1.00586 39.8455 0.62151 39.2469L0.618652 13.9966ZM43.2991 15.5398H2.94907V37.6351H43.2991V15.5398Z" fill="#7EA0B7"/>
<path d="M48.3859 31.0103C47.6115 23.6318 46.8442 16.3262 46.0798 8.98493C44.268 9.17068 42.5077 9.35214 40.736 9.53646C38.5051 9.76888 36.2747 10.0042 34.0448 10.2423L26.3463 11.0567C23.8315 11.3215 21.3173 11.584 18.8035 11.844L9.98907 12.7728C9.74094 12.8006 9.49148 12.8149 9.24179 12.8156C8.96333 12.8272 8.69098 12.7318 8.48057 12.549C8.27017 12.3663 8.13764 12.1099 8.11016 11.8326C8.04301 11.1768 8.39593 10.6581 9.05747 10.5724C10.3106 10.408 11.5679 10.2866 12.8253 10.1523C15.4277 9.87509 18.03 9.60123 20.6324 9.33071C23.1814 9.06352 25.7319 8.8049 28.2809 8.53771C30.8299 8.27052 33.3775 7.99047 35.9266 7.72185C38.086 7.49324 40.2459 7.26796 42.4063 7.04601C43.8751 6.89456 45.3454 6.73882 46.8156 6.59593C47.6915 6.5102 48.143 6.84741 48.2445 7.71185C48.5017 9.97654 48.7346 12.2441 48.9732 14.5102C49.2408 17.0421 49.5066 19.574 49.7705 22.1058C50.0381 24.6549 50.3072 27.2044 50.5777 29.7543C50.6492 30.4445 50.7421 31.1346 50.7864 31.8261C50.8378 32.6377 50.5006 33.0692 49.6919 33.1878C48.9174 33.3021 48.1373 33.3793 47.3572 33.4436C47.0617 33.4805 46.7635 33.4007 46.526 33.2211C46.2885 33.0415 46.1305 32.7763 46.0855 32.482C45.9926 31.8033 46.3841 31.2689 47.0857 31.1489C47.4829 31.086 47.8916 31.0632 48.3859 31.0103Z" fill="#7EA0B7"/>
<path d="M52.8993 24.2387C51.509 16.986 50.1245 9.77042 48.7299 2.50055C47.8098 2.67058 46.9225 2.83203 46.038 3.00064L28.282 6.4041L13.0921 9.31605C12.3777 9.45893 11.7762 9.10316 11.6462 8.48162C11.5033 7.77863 11.9062 7.19567 12.6663 7.05279C19.5819 5.72874 26.4983 4.40517 33.4158 3.08208C38.148 2.17335 42.8798 1.26175 47.6112 0.347305C48.1527 0.243001 48.6956 0.147269 49.2357 0.0386781C50.0816 -0.129923 50.6246 0.214424 50.7889 1.06172C51.468 4.55377 52.142 8.0463 52.8107 11.5393C53.6537 15.921 54.4943 20.3052 55.3325 24.6917C55.5111 25.6175 55.1997 26.1205 54.2724 26.3134C53.7008 26.4334 53.1293 26.5577 52.542 26.6334C52.392 26.6578 52.2386 26.6517 52.091 26.6153C51.9434 26.579 51.8046 26.5132 51.6831 26.422C51.5615 26.3307 51.4597 26.2158 51.3836 26.0842C51.3075 25.9526 51.2588 25.807 51.2404 25.6561C51.2119 25.3694 51.2895 25.0822 51.4586 24.8489C51.6276 24.6156 51.8764 24.4524 52.1577 24.3902C52.3806 24.3387 52.6078 24.2987 52.8993 24.2387Z" fill="#7EA0B7"/>
<path d="M23.1442 16.6792H36.7266C37.8497 16.6792 38.1455 16.9364 38.2841 18.0308C38.4341 19.2196 39.2842 20.0112 40.493 20.1055C41.2789 20.1669 41.6932 20.597 41.6932 21.3814C41.6932 24.8582 41.6932 28.3351 41.6932 31.8119C41.6932 32.5949 41.3418 32.9878 40.5659 33.0978C39.0156 33.3279 38.4469 33.9194 38.2641 35.4711C38.2513 35.7142 38.1569 35.9459 37.9961 36.1287C37.8354 36.3115 37.6177 36.4347 37.3782 36.4784C37.1696 36.5218 36.9569 36.5424 36.7438 36.5399C27.6707 36.5399 18.5977 36.537 9.52465 36.5313C9.16601 36.5313 8.74165 36.4727 8.46874 36.2741C8.22298 36.0955 8.04867 35.7026 8.00294 35.3811C7.79862 33.9651 7.15422 33.2836 5.75397 33.1064C4.90668 33.0007 4.55376 32.6277 4.5509 31.7719C4.54423 28.3312 4.54423 24.8906 4.5509 21.45C4.5509 20.5456 4.93382 20.1641 5.83684 20.0983C6.339 20.0701 6.81691 19.8731 7.19319 19.5394C7.56946 19.2056 7.82205 18.7546 7.91007 18.2594C7.93865 18.1166 7.96151 17.9737 7.97865 17.8379C8.07296 17.0464 8.47732 16.6777 9.28889 16.6777C11.9789 16.6777 14.6703 16.6777 17.3632 16.6777L23.1442 16.6792ZM6.82988 22.2887C6.82988 25.0964 6.82988 27.8612 6.84702 30.6188C6.84702 30.7617 7.07564 30.9846 7.24424 31.0474C8.56162 31.569 9.49893 32.4763 9.98044 33.7994C10.1148 34.1709 10.2962 34.228 10.6363 34.228C18.9768 34.2213 27.3169 34.2213 35.6565 34.228C35.9808 34.228 36.148 34.1637 36.2709 33.8208C36.4848 33.1848 36.8422 32.6066 37.3155 32.1309C37.7887 31.6552 38.3651 31.2947 38.9999 31.0774C39.3428 30.9531 39.4128 30.7803 39.4114 30.4545C39.4019 27.8883 39.4019 25.3217 39.4114 22.7545C39.4114 22.3959 39.3114 22.2344 38.9642 22.1087C38.3543 21.9006 37.799 21.5583 37.339 21.107C36.8791 20.6557 36.5262 20.1069 36.3066 19.5011C36.1508 19.0939 35.9637 18.9839 35.5436 18.9853C27.5612 18.9986 19.5774 19.002 11.5922 18.9953C11.2188 18.9795 10.8449 18.9838 10.472 19.0082C10.3849 19.018 10.3013 19.0472 10.2271 19.0937C10.1529 19.1402 10.0901 19.2027 10.0433 19.2768C9.48607 20.817 8.40873 21.7886 6.82988 22.2887Z" fill="#7EA0B7"/>
<path d="M29.4081 26.6065C29.4067 27.8481 29.0377 29.0614 28.3476 30.0936C27.6575 31.1257 26.6772 31.9304 25.5304 32.4062C24.3836 32.882 23.1216 33.0075 21.9035 32.767C20.6854 32.5265 19.5659 31.9307 18.6859 31.0548C17.806 30.1788 17.2052 29.0619 16.9591 27.845C16.7131 26.628 16.8329 25.3654 17.3035 24.2165C17.7741 23.0675 18.5743 22.0836 19.6033 21.3889C20.6323 20.6941 21.844 20.3196 23.0856 20.3125C24.7583 20.3099 26.3637 20.9712 27.5491 22.1513C28.7346 23.3314 29.4032 24.9338 29.4081 26.6065ZM23.1213 30.5915C23.9081 30.5884 24.6764 30.3524 25.3293 29.9133C25.9822 29.4743 26.4906 28.8518 26.7902 28.1242C27.0899 27.3967 27.1675 26.5968 27.0132 25.8252C26.859 25.0537 26.4797 24.3451 25.9234 23.7887C25.367 23.2323 24.6584 22.8531 23.8869 22.6989C23.1153 22.5446 22.3154 22.6222 21.5878 22.9219C20.8603 23.2215 20.2378 23.7298 19.7987 24.3828C19.3597 25.0357 19.1237 25.804 19.1206 26.5908C19.1206 27.1164 19.2242 27.6369 19.4254 28.1224C19.6266 28.608 19.9216 29.0492 20.2934 29.4207C20.6652 29.7923 21.1066 30.0869 21.5923 30.2878C22.078 30.4887 22.5985 30.5919 23.1242 30.5915H23.1213Z" fill="#7EA0B7"/>
</g>
<defs>
<clipPath id="clip0_140_10800">
<rect width="54.7626" height="40" fill="white" transform="translate(0.618652)"/>
</clipPath>
</defs>
</svg>
