<svg width="48" height="48" viewBox="0 0 48 48" fill="none" xmlns="http://www.w3.org/2000/svg">
<g clip-path="url(#clip0_140_10788)">
<path d="M42.8433 12.8692L41.1556 13.0478C40.9004 13.0746 40.6453 13.1129 40.3966 13.1192C39.9577 13.132 39.6426 12.873 39.5852 12.4814C39.5594 12.2894 39.6104 12.0949 39.7272 11.9403C39.8441 11.7857 40.0172 11.6836 40.209 11.656C40.8469 11.545 41.5 11.4851 42.1468 11.4073C42.888 11.3193 43.6317 11.2427 44.3716 11.1521C45.0413 11.0667 45.4087 11.3601 45.4125 12.0451C45.4227 13.3973 45.4202 14.7508 45.4125 16.1031C45.4125 16.6516 45.1331 16.9782 44.6918 16.996C44.2504 17.0139 43.9123 16.6656 43.8996 16.112C43.9064 15.4535 43.8714 14.7952 43.795 14.1411C43.2209 14.8308 42.6468 15.5213 42.0728 16.2128L35.0846 24.6782C34.6445 25.2127 34.4225 25.2637 33.7656 24.9716C30.7039 23.6109 27.6423 22.2476 24.5807 20.8817C24.2401 20.7287 24.0053 20.7248 23.6877 20.9621C20.6099 23.2456 17.5228 25.5171 14.4263 27.7768C13.7578 28.2679 13.5818 28.2679 12.9108 27.7768C9.64246 25.376 6.37502 22.9734 3.10843 20.5692C2.91118 20.4421 2.74995 20.2664 2.64026 20.0589C2.57359 19.911 2.56189 19.7442 2.60726 19.5885C2.65263 19.4327 2.75208 19.2983 2.88774 19.2093C3.21814 18.967 3.54216 19.0218 3.85598 19.2527L7.5478 21.9622C9.47025 23.3731 11.4004 24.7764 13.3113 26.2039C13.6034 26.422 13.7808 26.3863 14.0474 26.1898C17.1179 23.923 20.2025 21.6739 23.2667 19.3994C23.7196 19.0639 24.1061 19.0167 24.6215 19.245C27.6308 20.6024 30.658 21.924 33.6648 23.2864C34.0411 23.4561 34.2057 23.3821 34.443 23.0925C37.1644 19.7757 39.8973 16.4615 42.6418 13.1499C42.6889 13.0771 42.7323 13.0159 42.8433 12.8692Z" fill="#7EA0B7"/>
<path d="M47.9996 34.1701C47.9996 38.117 47.9996 42.064 47.9996 46.011C47.9996 47.4142 47.4294 47.9883 46.0427 47.9895C45.0719 47.9895 44.1011 47.9895 43.1303 47.9895C41.9695 47.9895 41.3125 47.3517 41.3125 46.1959C41.3125 38.1591 41.3125 30.1224 41.3125 22.0856C41.3125 20.9273 41.9695 20.2767 43.1138 20.2754C44.1488 20.2754 45.1833 20.2754 46.2175 20.2754C47.3656 20.2754 47.9958 20.9132 48.0034 22.092C48.0085 25.6894 48.0085 29.2864 48.0034 32.8829L47.9996 34.1701ZM42.8293 21.8151V44.1395C42.8293 44.7774 42.8459 45.4152 42.8229 46.0531C42.8114 46.3937 42.9364 46.4983 43.2643 46.4868C43.8358 46.4664 44.4124 46.4868 44.9814 46.4868H46.4471V21.8151H42.8293Z" fill="#7EA0B7"/>
<path d="M14.6303 0C19.6182 0 23.6876 4.05411 23.6876 9.02543C23.6876 13.9968 19.6055 18.0738 14.5895 18.0675C9.65134 18.0598 5.58575 13.9853 5.58447 9.03309C5.59088 6.63713 6.54639 4.34132 8.24179 2.6483C9.93719 0.955293 12.2343 0.00302857 14.6303 0ZM14.6227 1.51678C13.1363 1.52234 11.685 1.96837 10.4521 2.79851C9.21916 3.62865 8.26 4.80565 7.69581 6.18075C7.13161 7.55585 6.98771 9.06735 7.28229 10.5242C7.57686 11.9811 8.29669 13.3179 9.35081 14.3658C10.4049 15.4137 11.746 16.1256 13.2046 16.4115C14.6632 16.6974 16.1738 16.5445 17.5455 15.9722C18.9173 15.3999 20.0885 14.4337 20.9114 13.1959C21.7342 11.9581 22.1716 10.5041 22.1683 9.01778C22.1616 7.02273 21.363 5.11198 19.9481 3.70546C18.5332 2.29893 16.6177 1.5117 14.6227 1.51678Z" fill="#7EA0B7"/>
<path d="M20.6619 36.8848C20.6619 33.7986 20.6619 30.7123 20.6619 27.626C20.6619 26.4281 21.2819 25.8081 22.481 25.8056C23.5462 25.8056 24.6127 25.7992 25.6779 25.8056C26.6538 25.8132 27.3363 26.483 27.3363 27.4525C27.3363 33.7518 27.3363 40.0519 27.3363 46.3529C27.3363 47.2791 26.6844 47.959 25.757 47.9794C24.6089 48.0062 23.4608 48.0011 22.3203 47.9794C21.3087 47.9654 20.6619 47.2957 20.6619 46.2828C20.6602 43.1523 20.6602 40.0196 20.6619 36.8848ZM22.2093 27.3402V46.4422H25.794V27.3402H22.2093Z" fill="#7EA0B7"/>
<path d="M6.69057 36.9139V46.0261C6.69057 47.3821 6.09228 47.9855 4.75026 47.9868C3.74758 47.9868 2.74489 47.9944 1.74349 47.9868C0.650228 47.9766 0.0123873 47.3592 0.0123873 46.2812C0.00303235 40.0287 0.00303235 33.7778 0.0123873 27.5287C0.0123873 26.4406 0.661708 25.818 1.74221 25.8142C2.82271 25.8104 3.87387 25.8142 4.94034 25.8142C6.05018 25.8142 6.69312 26.4725 6.69567 27.6167C6.69567 30.1936 6.69567 32.7705 6.69567 35.3486L6.69057 36.9139ZM1.55213 46.4815C2.59564 46.4815 3.59322 46.4585 4.59335 46.4904C5.05005 46.5057 5.18272 46.3731 5.18144 45.9087C5.16613 39.8952 5.16231 33.8816 5.16996 27.868C5.16996 27.6984 5.15465 27.53 5.147 27.3514H1.55213V46.4815Z" fill="#7EA0B7"/>
<path d="M37.6626 38.5195C37.6626 41.0657 37.6626 43.612 37.6626 46.1582C37.6626 47.3689 37.0528 47.9837 35.8536 47.9888C34.8191 47.9888 33.7845 47.9965 32.7499 47.9888C31.6311 47.9799 30.9844 47.3229 30.9844 46.1952C30.9844 41.0551 30.9844 35.915 30.9844 30.7748C30.9844 29.665 31.6567 28.9889 32.7614 28.9761C33.8117 28.9676 34.862 28.9676 35.9123 28.9761C37.0018 28.9863 37.6587 29.6471 37.6613 30.7378C37.6651 33.3326 37.6613 35.926 37.6626 38.5195ZM36.1241 30.4916C35.0691 30.4916 34.0677 30.5146 33.0701 30.4814C32.6109 30.4661 32.4858 30.6026 32.4871 31.0618C32.5037 36.0115 32.4973 40.9611 32.4973 45.9108V46.4376H36.1241V30.4916Z" fill="#7EA0B7"/>
<path d="M10.3454 39.7025C10.3454 37.5696 10.3454 35.4379 10.3454 33.3062C10.3454 32.1581 10.9641 31.5356 12.1071 31.5292C13.1723 31.5228 14.2387 31.5203 15.3052 31.5292C16.3717 31.5381 17.021 32.2053 17.021 33.2718C17.0261 37.5989 17.0261 41.9264 17.021 46.2544C17.021 47.3132 16.3551 47.9753 15.2899 47.9855C14.2247 47.9957 13.1582 47.9944 12.0918 47.9855C10.9768 47.9766 10.3479 47.3476 10.3454 46.2391C10.3352 44.0615 10.3454 41.8814 10.3454 39.7025ZM15.4774 46.4445V33.083H11.9055V46.4445H15.4774Z" fill="#7EA0B7"/>
<path d="M13.8532 5.06975C13.9348 4.16401 14.1274 3.86423 14.6262 3.85657C15.125 3.84892 15.361 4.18315 15.4248 4.99831C15.7335 4.99831 16.0473 4.9881 16.3612 4.99831C16.8459 5.01617 17.161 5.32743 17.1546 5.76372C17.1483 6.2 16.8306 6.49978 16.3395 6.50871C15.7986 6.51892 15.2577 6.50871 14.7168 6.50871C14.0356 6.50871 13.621 6.82636 13.6223 7.36724C13.6236 7.90813 14.0535 8.26022 14.6798 8.2666C16.5487 8.28318 17.7045 10.0717 16.9301 11.6816C16.6675 12.2142 16.2245 12.6363 15.68 12.8731C15.6124 12.9096 15.5534 12.9601 15.507 13.0213C15.4606 13.0824 15.4278 13.1528 15.4108 13.2277C15.3368 13.8758 15.1148 14.1781 14.6454 14.1845C14.1759 14.1909 13.9259 13.8885 13.8698 13.2009C13.8563 13.1516 13.837 13.1041 13.8124 13.0593C13.5572 13.0593 13.2727 13.0683 12.9921 13.0593C12.4321 13.0364 12.0838 12.7277 12.0991 12.2773C12.1144 11.827 12.4384 11.554 12.9819 11.54C13.5253 11.526 14.0318 11.54 14.5561 11.54C15.25 11.5323 15.6328 11.2223 15.6366 10.6725C15.6404 10.1227 15.2539 9.80124 14.5752 9.77956C13.223 9.73108 12.3338 8.97588 12.1285 7.70402C11.9741 6.75364 12.4959 5.75096 13.3876 5.28789C13.5406 5.20497 13.7026 5.13863 13.8532 5.06975Z" fill="#7EA0B7"/>
</g>
<defs>
<clipPath id="clip0_140_10788">
<rect width="48.0013" height="48" fill="white" transform="translate(-0.000488281)"/>
</clipPath>
</defs>
</svg>
