<svg width="42" height="48" viewBox="0 0 42 48" fill="none" xmlns="http://www.w3.org/2000/svg">
<g clip-path="url(#clip0_140_10769)">
<path d="M37.5042 47.9995C37.0984 47.734 36.9812 47.3513 36.9902 46.8814C37.0103 45.9476 36.9962 45.0139 36.9962 44.0069H34.9574C34.0266 44.0069 33.7852 43.7665 33.7852 42.8447C33.7852 36.1447 33.7852 29.445 33.7852 22.7456C33.7852 21.8349 34.0446 21.5794 34.9594 21.5784H36.9712C36.9802 21.378 36.9942 21.2157 36.9942 21.0504C36.9942 19.9574 36.9892 18.8643 36.9942 17.7712C36.9992 17.146 37.3199 16.7773 37.8158 16.7893C38.3117 16.8014 38.6123 17.1821 38.6173 17.8013C38.6173 19.0336 38.6173 20.2669 38.6173 21.5784H40.581C41.592 21.5784 41.8104 21.7988 41.8104 22.8198V42.8718C41.8104 43.7655 41.5709 44.0029 40.6692 44.0069C40.0009 44.0069 39.3327 44.0069 38.6173 44.0069C38.6173 45.0088 38.5983 45.9576 38.6243 46.9054C38.6384 47.3934 38.4831 47.7531 38.0643 47.9995H37.5042ZM35.4533 23.2426V42.3428H40.1773V23.2426H35.4533Z" fill="#7EA0B7"/>
<path d="M3.37958 4.7541V1.32761C3.37958 1.15628 3.37156 0.982954 3.37958 0.812631C3.41264 0.331719 3.73726 0.0111115 4.1811 9.0566e-05C4.63696 -0.00592083 4.96659 0.287635 4.98763 0.788585C5.01568 1.47489 5.00065 2.16319 5.00265 2.84949C5.00265 3.47267 5.00265 4.09485 5.00265 4.78616H7.12668C7.9282 4.78616 8.21274 5.05968 8.21274 5.84517C8.21274 12.608 8.21274 19.3701 8.21274 26.1316C8.21274 26.9331 7.94323 27.1926 7.13971 27.1956C6.4534 27.1956 5.7671 27.1956 5.00165 27.1956V27.8108C5.00165 28.6384 5.01167 29.466 4.99664 30.2935C4.98662 30.8566 4.66802 31.2022 4.20013 31.2062C3.73225 31.2103 3.38459 30.8345 3.38058 30.2645C3.37357 29.2626 3.38058 28.2667 3.38058 27.1956H1.36075C0.397924 27.1956 0.186523 26.9812 0.186523 26.0114V5.95638C0.186523 5.00558 0.414957 4.78316 1.38179 4.78216H3.20925C3.2665 4.77593 3.32336 4.76657 3.37958 4.7541ZM6.54257 25.5696V6.43329H1.82162V25.5696H6.54257Z" fill="#7EA0B7"/>
<path d="M16.2099 37.5959C16.2099 38.698 16.2149 39.7309 16.2099 40.7619C16.2099 41.2108 15.9624 41.5053 15.5296 41.5915C15.1499 41.6666 14.8483 41.4913 14.688 41.1436C14.6225 40.969 14.5935 40.7828 14.6029 40.5966C14.5949 39.769 14.6029 38.9405 14.5979 38.1129C14.5979 37.9596 14.5848 37.8063 14.5748 37.5959C13.8374 37.5959 13.1241 37.5959 12.4107 37.5959C11.6613 37.5959 11.3878 37.3344 11.3878 36.582C11.3838 29.7864 11.3838 22.9902 11.3878 16.1933C11.3878 15.4589 11.6803 15.1914 12.4287 15.1914C13.1301 15.1914 13.8314 15.1914 14.5989 15.1914V14.4721C14.5989 13.4251 14.5928 12.3781 14.5989 11.3311C14.6049 10.73 14.8994 10.3993 15.4114 10.4054C15.9053 10.4054 16.2069 10.762 16.2129 11.3552C16.2129 12.6175 16.2129 13.8789 16.2129 15.1914H18.3039C19.1505 15.1914 19.406 15.4399 19.406 16.2655V36.5599C19.406 37.3374 19.1485 37.5929 18.368 37.5959C17.6657 37.5979 16.9653 37.5959 16.2099 37.5959ZM17.7829 16.8235H13.0489V35.9598H17.7829V16.8235Z" fill="#7EA0B7"/>
<path d="M25.7902 34.4026H23.6462C22.8647 34.4026 22.5962 34.1411 22.5962 33.3757C22.5962 26.5828 22.5962 19.7896 22.5962 12.996C22.5962 12.2757 22.8667 12.0032 23.5781 12.0012C24.2894 11.9992 25.0098 12.0012 25.7882 12.0012V10.9101C25.7882 9.97331 25.7822 9.03653 25.7882 8.09976C25.7933 7.54471 26.1079 7.20807 26.5898 7.20606C27.0717 7.20406 27.3863 7.52266 27.3913 8.09475C27.4033 9.20285 27.3913 10.312 27.3963 11.4211V12.0002H29.5634C30.3389 12.0002 30.6074 12.2576 30.6084 13.0391C30.6084 19.8166 30.6084 26.5942 30.6084 33.3717C30.6084 34.1391 30.3279 34.4006 29.5514 34.4026H27.3973V36.2601C27.3973 36.6509 27.4023 37.0416 27.3973 37.4314C27.3873 38.0455 27.0597 38.4333 26.5727 38.4122C26.0858 38.3912 25.7892 38.0175 25.7862 37.4354C25.7812 36.5918 25.7862 35.7482 25.7862 34.9056L25.7902 34.4026ZM24.2323 13.6182V32.7775H28.9563V13.6182H24.2323Z" fill="#7EA0B7"/>
</g>
<defs>
<clipPath id="clip0_140_10769">
<rect width="41.6269" height="48" fill="white" transform="translate(0.186523)"/>
</clipPath>
</defs>
</svg>
